<?xml version="1.0" encoding="UTF-8"?>
<svg data-bbox="608.674 535.19 782.921 929.923" xmlns="http://www.w3.org/2000/svg" viewBox="0 0 2000 2000" height="2000" width="2000" data-type="shape">
    <g>
        <path d="M964 1463.832c-63.046-7.282-120.8-30.952-175.333-71.861-10.413-7.811-57.732-37.65-68.708-43.325-6.473-3.348-9.737-2.43-19.34 5.442-4.98 4.081-11.837 8.831-15.239 10.555-6.279 3.182-44.343 12.301-56.938 13.641-6.778.721-6.981.637-12.3-5.109-2.976-3.213-6.092-7.48-6.926-9.481-1.618-3.882-1.919-3.046 34.052-94.757 6.27-15.984 11.399-30.274 11.399-31.754 0-4.41-1.93-6.892-17.135-22.045-13.17-13.124-14.677-15.128-16.174-21.528-2.049-8.756-1.026-18.564 3.523-33.781l3.44-11.504-4.05-17.163c-2.226-9.439-4.688-20.162-5.47-23.829-12.092-56.742-13.445-135.49-3.367-196 17.431-104.66 63.477-197.806 131.719-266.453 58.133-58.478 127.497-94.935 203.784-107.106 21.529-3.435 76.95-3.448 97.73-.023 67.45 11.117 122.333 36.648 177.972 82.791 63.455 52.625 115.102 133.297 141.78 221.458 25.677 84.859 30.106 175.851 12.85 264-2.154 11-4.468 21.913-5.143 24.25-1.11 3.847-.675 4.96 4.563 11.707 7.976 10.27 10.677 18.682 10.506 32.71-.163 13.41-3.39 24.102-11.466 38-7.021 12.083-30.435 35.3-43.029 42.666-12.19 7.131-15.06 10.275-28.609 31.334-39.227 60.973-96.584 113.03-157.596 143.033-39.528 19.438-73.565 29.45-116.495 34.265-14.172 1.59-55.768 1.511-70-.133m76-27.317c57.877-7.385 113.4-31.777 164-72.047 22.094-17.583 53.88-51.551 72.647-77.632 4.018-5.585 4.588-6.994 2.587-6.392-4.67 1.405-31.406 7.308-67.234 14.844-19.433 4.088-39.233 8.32-44 9.403s-41.367 8.892-81.333 17.352-96.367 20.428-125.334 26.596c-54.397 11.582-124 26.259-137.96 29.091l-7.96 1.615 12.626 8.112c65.418 42.027 137.082 58.614 211.961 49.059m-44-37.293c0-8.947 3.094-9.596 3.743-.785.361 4.898.8 5.563 3.667 5.563 1.791 0 3.257.6 3.257 1.333 0 .734-2.4 1.334-5.334 1.334H996Zm16.883.504c-.927-7.822-.037-9.007 6.784-9.039 5.204-.024 5.821 2.293.77 2.891-5.243.62-5.634 3.755-.47 3.755 2.454 0 3.849.553 3.366 1.334-.453.733-2.338 1.333-4.19 1.333-2.1 0-3.156.627-2.809 1.667.334.998 2.25 1.492 4.778 1.233 4.821-.496 5.743 1.714 1.221 2.926-7.459 2-8.576 1.278-9.45-6.1m-47.15 3.713c-1.361-2.417-8.4-4.303-8.4-2.25 0 .813-.9 1.478-2 1.478s-2-.28-2-.62c0-1.879 8.344-13.38 9.707-13.38 1.519 0 3.451 4.597 5.465 13 .926 3.864-.927 5.049-2.772 1.773m-2.307-8.344c-.759-1.978-1.093-2.046-2.094-.426-.757 1.225-.624 2.278.366 2.89 2.132 1.318 2.81.352 1.728-2.464M976.16 1398c.288-7.132.403-7.333 4.156-7.333 5.121 0 9.017 2.209 9.017 5.113 0 3.409-2.66 5.553-6.891 5.553-2.734 0-3.492.52-2.924 2 .492 1.283-.026 2-1.444 2-1.827 0-2.16-1.273-1.914-7.333m8.922-1.651c-.669-3.476-5.082-3.864-5.082-.447 0 1.908.856 2.765 2.764 2.765 1.909 0 2.627-.718 2.318-2.318m47.585 7.651c-2.7-1.16-2.075-1.617 2.549-1.864 4.254-.227 3.832-3.06-.587-3.944-3.581-.716-4.085-1.327-3.719-4.51.368-3.2 1.077-3.736 5.423-4.096 2.895-.24 5 .182 5 1 0 .778-1.8 1.414-4 1.414-5.288 0-5.101 1.966.334 3.518 5.77 1.648 6.738 6.554 1.672 8.48-1.932.734-3.623 1.293-3.76 1.242-.135-.052-1.446-.61-2.912-1.24m18 .109c0-.673-.364-2.173-.81-3.333-.53-1.384-.073-2.11 1.334-2.11 1.396 0 2.142 1.161 2.142 3.334 0 1.833-.6 3.333-1.333 3.333s-1.333-.55-1.333-1.224M941.333 1396c-1.878-4.534-4-5.283-4-1.412 0 2.61-2.253 4.936-3.538 3.651-1.12-1.12 2.272-15.572 3.654-15.572.694 0 2.262 2.1 3.486 4.666 2.554 5.355 4.029 5.918 4.639 1.771.234-1.592 1.257-3.17 2.273-3.504 1.46-.482 1.655.474.93 4.562-1.435 8.076-2.158 9.838-4.038 9.838-.962 0-2.494-1.8-3.406-4m119.495.333c-.377-1.283-1.069-4.498-1.536-7.144-.812-4.59-.654-4.85 3.428-5.666 5.654-1.131 6.613-1.083 6.613.333 0 .653-1.5 1.565-3.333 2.025s-3.333 1.773-3.333 2.917c0 1.618.889 1.885 4 1.202 4.888-1.074 5.446 1.348.59 2.567-2.644.663-3.222 1.443-2.576 3.477.575 1.812.214 2.623-1.168 2.623-1.1 0-2.308-1.05-2.685-2.334m15.96-7.918c-1.682-4.935-1.779-6.47-.46-7.29 1.163-.721 2.281.711 3.672 4.704 1.864 5.35 2.249 5.672 5.667 4.738 4.661-1.275 4.865 1.043.246 2.8-5.735 2.18-6.914 1.54-9.126-4.952m17.601-2.082c-3.967-3.119-4.172-7.338-.532-10.978 1.845-1.845 4.582-3.355 6.082-3.355 3.486 0 8.061 4.54 8.061 8 0 6.105-8.732 10.169-13.61 6.333m8.225-2.936c2.776-3.345 1.126-6.73-3.28-6.73-2.756 0-4.105.73-4.426 2.397-.53 2.749 1.956 6.27 4.425 6.27.92 0 2.397-.872 3.28-1.937m10.96-9.484c-3.344-6.883-3.133-7.775 2.292-9.666 4.618-1.61 9.837 1.228 9.197 5.002-.218 1.287.467 3.382 1.523 4.654 1.782 2.146 1.556 2.244-3.146 1.362-4.74-.889-5.007-.767-4.162 1.893 1.742 5.49-2.683 2.973-5.704-3.245m7.508-4.928c.298-1.548-.398-2.318-2.095-2.318-3.265 0-4.325 1.103-3.394 3.529.99 2.58 4.927 1.711 5.49-1.211m10.377-4.465c-3.215-5.752-3.548-9.556-.681-7.785 1.513.936 6.555 10.584 6.555 12.545 0 3.153-2.653 1.003-5.874-4.76m9.616-5.19-3.592-5.92 3.438-2.706c4.424-3.479 10.537-3.54 12.365-.125 2.69 5.024 1.646 9.298-2.953 12.102-2.383 1.453-4.633 2.626-5 2.605-.366-.02-2.283-2.7-4.258-5.957m10.207-4.983c-1.003-2.612-3.924-3.862-6.615-2.83-2.584.992-2.533 3.13.166 6.983 2.134 3.047 2.205 3.055 4.719.54 1.475-1.475 2.205-3.454 1.73-4.693m8.794-7.835c-.877-4.458-1.236-8.463-.798-8.901 1.17-1.17 15.389 6.097 15.389 7.863 0 .83-1.156 1.201-2.58.829-3.02-.79-8.087 2.36-8.087 5.027 0 1.015-.524 2.17-1.165 2.566-.64.396-1.882-2.927-2.76-7.384m5.838-2.372c.405-.657-.16-1.538-1.255-1.958-1.21-.465-1.992 0-1.992 1.193 0 2.157 2.083 2.647 3.247.765m-337.061-4.227c13.83-2.98 48.847-10.449 77.814-16.596s76.666-16.274 106-22.505c29.333-6.231 91.733-19.465 138.666-29.407 103.304-21.886 115.408-24.794 132.954-31.954 46.69-19.05 77.09-52.473 77.033-84.693-.014-8.13-4.222-18.932-9.043-23.218-7.032-6.252-19.3-7.682-31.998-3.73l-7.958 2.477 3.213-7.018c3.888-8.492 5.839-18.417 10.47-53.269 3.682-27.714 4.696-30.915 11.543-36.459 4.353-3.524 9.12-12.014 9.12-16.242 0-4.14-2.417-7.937-5.897-9.26-3.872-1.472-31.15 4.112-37.206 7.617-2.97 1.72-13.967 16.742-36.897 50.406-17.967 26.377-34.95 50.289-37.741 53.139-7.513 7.67-11.872 17.207-12.622 27.61-1.03 14.284 3.556 22.774 14.228 26.34 13.09 4.375 38.86-3.017 57.468-16.484 7.618-5.514 20.714-12.03 26.334-13.105 5.443-1.041 10.373.776 12.404 4.57 4.116 7.692-6.735 22.22-21.892 29.313-8.399 3.93-15.774 5.59-174.18 39.192a258682 258682 0 0 0-109.333 23.225c-31.166 6.63-82.044 17.45-113.06 24.046-61.956 13.174-64.785 14.13-76.454 25.862-6.517 6.552-33.664 52.323-32.321 54.496 1.021 1.652 2.532 1.428 29.355-4.353m59.428-42.231c.326-9.856.745-11.72 2.719-12.098 2.044-.39 2.333.72 2.333 8.96v9.405l6-.822c4.754-.652 6-.417 6 1.13 0 1.252-2.426 2.512-6.768 3.514-11.174 2.58-10.717 3.028-10.284-10.09m32-6.667c.326-9.855.745-11.72 2.719-12.098 2.084-.398 2.333.85 2.333 11.652 0 11.286-.182 12.098-2.718 12.098-2.558 0-2.696-.69-2.334-11.652m24.483 2.892c-5.248-5.248-2.846-16.073 4.398-19.818 4.106-2.124 14.855-2.913 14.818-1.089-.057 2.77-2.523 4.552-5.147 3.72-4.154-1.319-7.293.108-9.882 4.491-2.5 4.231-1.923 7.508 1.657 9.424 4.011 2.147 8.059.154 8.059-3.968 0-2.568.81-3.901 2.666-4.387 2.329-.609 2.667-.04 2.667 4.477 0 4.381-.603 5.486-3.934 7.209-5.09 2.632-12.64 2.603-15.302-.06m36.57-15.907c0-6.233.25-11.333.557-11.333s1.507-.364 2.667-.81c1.684-.646 2.109.165 2.109 4.026 0 4.58.193 4.792 3.666 4.031 6.65-1.457 7-1.784 7-6.539 0-3.82.504-4.708 2.667-4.708 2.455 0 2.667.889 2.667 11.19 0 8.975-.418 11.351-2.11 12-3.179 1.22-3.224 1.165-3.224-3.963 0-4.686-.078-4.756-4.333-3.843-6.09 1.306-6.333 1.562-6.333 6.694 0 3.7-.517 4.588-2.667 4.588-2.458 0-2.667-.889-2.667-11.333m44-7.148c0-9.04-.04-9.141-3.334-8.512-4.807.92-4.486-3.364.333-4.444a345 345 0 0 0 8.334-2.018c6.511-1.67 8-1.516 8 .822 0 1.193-1.654 2.364-4 2.833l-4 .8v9.834c0 8.944-.241 9.833-2.667 9.833-2.408 0-2.667-.889-2.667-9.148m28-8.185c0-11.911.024-12 3.333-12 2.815 0 3.333.622 3.333 4 0 4.336 1.486 4.89 7.247 2.7 2.778-1.057 3.42-2.183 3.42-6 0-3.841.497-4.7 2.718-4.7 2.558 0 2.696.688 2.334 11.651-.326 9.856-.745 11.72-2.719 12.098-1.805.345-2.333-.464-2.333-3.573 0-4.929-.82-5.439-6.334-3.943-3.797 1.03-4.333 1.731-4.333 5.662 0 4.173-1.722 6.105-5.442 6.105-.674 0-1.225-5.4-1.225-12m40.742-1.63c-2.612-3.73-2.64-8.079-.083-13.022 2.83-5.474 7.088-8.015 13.43-8.015 6.858 0 9.91 3.051 9.91 9.905 0 3.94-.98 6.009-4.533 9.562-3.825 3.825-5.48 4.533-10.59 4.533-4.75 0-6.507-.64-8.134-2.963m14.41-3.8c7.693-6.05 1.697-16.721-6.41-11.41-4.531 2.97-5.747 8.186-2.694 11.56 3 3.316 4.735 3.287 9.105-.15m27.344-3.44c-1.142-1.376-1.83-5.5-1.83-10.97 0-7.283.395-8.843 2.333-9.227 1.86-.369 2.334.47 2.334 4.136 0 8.873 1.433 12.93 4.566 12.93 4.69 0 6.1-2.645 6.1-11.444 0-7.123.363-8.34 2.667-8.942 2.487-.65 2.667-.04 2.667 9.06 0 9.258-.21 9.933-4.103 13.208-4.765 4.01-11.936 4.617-14.734 1.248m35.688-7.797c.443-1.154 2.436-2 4.712-2 4.731 0 9.485-2.303 8.395-4.067-.43-.696-2.286-1.266-4.125-1.266-12.28 0-10.767-12.944 1.789-15.3 4.88-.915 8.024.636 6.45 3.183-.493.798-2.312 1.45-4.042 1.45-4.528 0-7.364 1.338-7.364 3.476 0 1.184 1.483 1.857 4.088 1.857 9.137 0 11.968 5.4 5.973 11.394-2.604 2.605-4.638 3.273-9.958 3.273-5.395 0-6.537-.386-5.918-2m35.149-15.466c0-12.674-.52-11.846 8.666-13.807 2.2-.47 5.05-1.166 6.334-1.547 1.662-.494 2.333.056 2.333 1.912 0 2.065-1.243 2.792-6 3.505-4.753.713-6 1.44-6 3.5 0 2.288.643 2.498 5.333 1.748 4.374-.7 5.334-.465 5.334 1.302 0 1.483-1.663 2.42-5.334 3.008-4.124.66-5.333 1.447-5.333 3.474 0 2.379.616 2.537 6.667 1.704 5.307-.73 6.666-.53 6.666.982 0 1.27-3.087 2.56-9.333 3.902l-9.333 2.004zm28.333-81.342c-.917-.949-1.667-4.501-1.667-7.894 0-6.033.084-6.157 3.824-5.608 7.837 1.15 17.345-7.606 19.475-17.936.672-3.263.253-4.869-1.81-6.932l-2.685-2.685 7.468-11.069c11.54-17.103 24.491-35.735 24.84-35.735.172 0-1.36 13.302-3.405 29.56-4.822 38.33-8.242 46.431-23.373 55.352-6.708 3.955-20.021 5.686-22.667 2.947m-587.148 188.783c5.419-1.109 13.4-3.907 17.737-6.219 8.93-4.76 19.72-15.821 24.327-24.942 1.708-3.381 12.469-30.147 23.913-59.48 11.444-29.334 21.576-54.815 22.516-56.624 1.292-2.488 3.817-3.848 10.349-5.577 17.524-4.639 26.887-2.402 32.901 7.86 9.892 16.88-1.355 49.87-26.085 76.513-15.089 16.255-33.647 28.317-46.221 30.04-7.242.993-7.987 1.914-5.463 6.748 5.054 9.676 15.023 15.057 27.798 15.005 38.274-.157 86.958-49.705 100.572-102.358 6.449-24.94 2.329-47.048-10.499-56.34-2.94-2.13-7.524-4.239-10.188-4.686-10.04-1.688-10.05-1.709-3.202-7.359 19.744-16.291 34.857-42.512 36.055-62.556.752-12.576-1.053-19.324-7.042-26.32-20.137-23.527-84.202-9.582-137.022 29.824-21.03 15.69-40.722 37.048-51.14 55.469-10.627 18.789-14.426 40.513-8.42 48.148 3.655 4.647 11.234 6.773 20.163 5.657l7.17-.896.021-10.274c.093-47.32 44.103-100.37 96.575-116.41 13.624-4.166 30.204-4.375 35.476-.449 7.44 5.54 9.195 9.325 9.13 19.687-.065 10.507-3.294 20.047-11.467 33.876-5.557 9.403-23.3 28.23-31.66 33.595-5.965 3.827-17.4 8.617-18.336 7.68-.428-.427 10.083-28.17 23.587-62.254 3.632-9.166 6.604-17.332 6.603-18.147 0-.832-11.311 2.37-25.87 7.326l-25.871 8.806-14.325 36.674c-7.878 20.171-21.489 54.975-30.245 77.341-8.756 22.367-21.322 54.467-27.923 71.334-6.602 16.866-13.75 35.062-15.885 40.434-4.667 11.744-4.722 12.478-.881 11.587 1.65-.383 7.434-1.604 12.852-2.713m224.437-84.622c11.914-3.68 22.736-11.085 33.882-23.184l9.505-10.317.943 5.028c2.268 12.092 7.666 16.014 20.251 14.715 10.269-1.06 20.152-6.265 28.348-14.931 5.987-6.331 14.678-21.212 13.232-22.658-.27-.27-3.908.46-8.086 1.624-8.585 2.39-11.697 1.213-11.697-4.422 0-3.203 6.775-21.672 24.408-66.541 16.388-41.698 20.925-53.447 20.925-54.182 0-.636-41.449 7.853-42.248 8.652-.189.189-9.43 23.71-20.536 52.27-20.976 53.938-23.672 59.823-32.126 70.105-7.733 9.406-19.885 13.907-21.444 7.943-1.283-4.903 1.518-13.222 22.885-67.977 11.845-30.353 21.323-55.402 21.06-55.664-.261-.262-9.772 1.45-21.135 3.806l-20.659 4.283-19.19 49.382c-28.464 73.244-27.006 68.792-27.15 82.901-.137 13.471 1.224 16.42 9.21 19.944 5.555 2.452 9.699 2.288 19.622-.777m144.044-31.986c21.083-4.47 40.883-9.225 44-10.566 17.863-7.686 35.142-31.349 32.309-44.247-1.077-4.904-5.304-6.129-13.365-3.872-10.539 2.951-20.168 16.753-14.552 20.859 2.371 1.734 2.367 1.857-.137 3.783-3.564 2.74-14.249 5.72-24.438 6.814l-8.517.915 7.292-10.527c4.01-5.79 16.801-24.626 28.424-41.86a15417 15417 0 0 1 41.007-60.44c10.931-16.008 19.55-29.432 19.152-29.83s-18.3 3.02-39.783 7.595c-44.433 9.463-50.11 11.677-61.448 23.968-12.817 13.894-16.732 27.898-8.849 31.657 10.527 5.019 28.24-10.831 25.937-23.21-.627-3.372-.245-4.555 1.831-5.666 2.696-1.443 23.458-6.714 26.511-6.73.94-.01-20.81 33.547-48.333 74.561-27.522 41.014-50.04 74.955-50.04 75.423s1.05.548 2.333.176 19.583-4.333 40.666-8.804m110.354-23.371c45.156-9.716 49.367-11.324 61.438-23.468 8.872-8.925 14.55-19.53 14.521-27.123-.023-6.087-.884-7.861-4.455-9.182-7.79-2.88-24.858 9.129-24.858 17.49 0 2.236.75 4.327 1.667 4.648 2.848.996-2.497 5.733-8.498 7.531-5.4 1.617-23.835 4.036-23.835 3.127 0-.463 15.228-23.045 68.948-102.24 14.88-21.937 26.87-40.072 26.643-40.298-.901-.902-76.697 15.803-83.01 18.295-13.001 5.132-29.643 23.582-31.841 35.302-2.557 13.631 13.31 15.235 24.512 2.477 4.476-5.098 7.427-13.742 5.388-15.782-.719-.718-1.307-1.77-1.307-2.339 0-1.837 7.671-5.065 16.947-7.13 4.98-1.11 10.432-2.325 12.117-2.702 2.403-.537-5.784 12.5-37.902 60.356-22.532 33.573-45.359 67.492-50.726 75.375-5.753 8.45-8.998 14.334-7.905 14.334 1.02 0 19.99-3.902 42.156-8.671m-454.362-104.459c24.212-21.835 52.338-38.829 80.454-48.611 21.566-7.503 32.538-9.54 51.54-9.565 14.458-.019 16.901-.32 16.427-2.025-.307-1.101-1.87-7.403-3.476-14.003-3.637-14.952-10.667-34.625-16.44-46-7.796-15.364-15.787-29.926-18.004-32.808-5.705-7.42-21.738-27.192-22.05-27.192-.194 0 .037 2.574.515 5.72 1.373 9.05-.956 29.932-4.69 42.057-2.987 9.695-10.89 26.7-13.952 30.02-2.056 2.23-5.507-18.33-5.45-32.463.066-15.832 2.308-26.34 8.027-37.618l3.863-7.617-3.544 2.252c-24.314 15.452-45.83 36.78-63.535 62.983-4.212 6.233-7.946 11.633-8.296 12-1.03 1.076 1.036-14.543 3.26-24.65 4.747-21.572 11.705-34.713 24.863-46.96 9.105-8.475 22.247-14.56 34.6-16.024 9.7-1.149 4.885-2.443-16.427-4.416-16.805-1.555-36.728-1.15-43.902.893-2.704.77-3.08.54-2.323-1.43 1.754-4.57 6.957-9.906 12.882-13.21 5.952-3.318 6.024-3.444 9.003-15.774 7.429-30.744 24.891-51.028 49.195-57.146 4.628-1.165 8.767-2.471 9.199-2.903 2.647-2.647-50.997-3.872-59.73-1.364-2.75.79-5 1.001-5 .47s1.768-3.754 3.93-7.163c5.85-9.224 12.523-12.255 26.736-12.143 12.17.095 21.773 2.745 36.333 10.025 4.217 2.108 7.667 3.26 7.667 2.56 0-.701-.613-1.654-1.363-2.117-2.63-1.625-9.51-17.031-12.061-27.004-2.66-10.4-3.514-28.311-1.35-28.311 2.503 0 14.678 15.216 18.68 23.344 2.276 4.623 5.133 12.44 6.35 17.37l2.212 8.962 1.546-5.171c4.05-13.543 12.574-24.166 23.2-28.91 8.506-3.798 24.928-4.567 36.149-1.692 9.992 2.56 12.18 4.102 7.771 5.476-14.364 4.476-45.201 24.353-55.8 35.967L786 802.998l3.333-1.166c1.834-.64 8.434-1.14 14.667-1.11 12.794.064 20.337 2.651 33.584 11.52 8.75 5.86 11.186 8.666 6.291 7.25-14.927-4.319-58.542-9.705-58.542-7.23 0 .369 3.784 4.51 8.409 9.204 58.414 59.284 94.989 147.71 104.316 252.2.744 8.343 1.346 10.334 3.123 10.334 1.834 0 4.97-13.22 18.843-79.452l16.643-79.451 9.333.752c5.133.414 14.733 1.05 21.333 1.412l12 .659L958 923.344c-11.733-2.517-25.233-5.221-30-6.009-14.546-2.404-13.333-.645-13.333-19.335 0-18.871-1.185-17.318 14.312-18.77l9.646-.904.354-36.83.354-36.83 8-1.52c10.284-1.956 3.72-2.288-10.788-.547-5.8.697-13.095 1.54-16.212 1.874l-5.666.607v-24.868l3.666-.703c2.017-.386 8.167-1.098 13.667-1.581 8.064-.709 11.454-1.755 17.508-5.403 4.129-2.489 7.835-4.525 8.235-4.525s5.616-3 11.59-6.667 11.13-6.666 11.456-6.666 4.543-2.4 9.371-5.334 9.326-5.333 9.995-5.333c1.123 0 10.612 5.45 44.071 25.314 11.52 6.838 13.935 7.75 22.667 8.562 5.376.5 11.724 1.248 14.107 1.664l4.333.757v12.543c0 12.305-.057 12.532-3 11.92-1.65-.343-7.05-1.002-12-1.465l-9-.84v75.829l9 .865c16.19 1.556 15 .057 15 18.917 0 18.61 1.164 16.916-13.176 19.171-4.68.736-8.84 1.669-9.244 2.072-.71.71 24.632 123.347 25.711 124.426.294.294 4.278-.276 8.854-1.267l8.32-1.801 2.478-14.667c13.122-77.68 48.544-153.518 93.56-200.311L1215.005 812h-8.538c-11.628 0-29.036 2.275-41.356 5.404-12.622 3.206-12.742 3.205-9.77-.079 2.635-2.912 17.19-11.594 24.659-14.71 5.09-2.122 25.047-2.688 30.667-.87 2.386.773.676-1.5-6.016-8-9.842-9.556-23.63-18.37-42.041-26.87-6.082-2.81-10.502-5.451-9.822-5.871 3.397-2.1 18.583-5.004 26.162-5.004 10.75 0 20.319 2.794 27.578 8.053 4.256 3.083 6.915 6.733 10.885 14.943 2.89 5.975 5.254 11.945 5.254 13.267 0 5.205 2.34 2.024 3.075-4.18.94-7.932 5.088-18.164 11.389-28.083 5.635-8.873 12.215-16.15 13.747-15.203 1.749 1.081 1.279 13.577-.898 23.87-1.58 7.473-6.062 18.256-13.665 32.88-.251.484 4.825-1.376 11.28-4.134 14.925-6.374 22.016-8.087 33.329-8.05 11.361.036 18.225 2.995 24.817 10.696 5.326 6.222 6.514 10.184 2.592 8.642-8.922-3.508-33.853-3.88-56.333-.84l-7.333.99 6 1.643c22.556 6.173 36.473 17.257 46.013 36.646 4.777 9.708 9.987 25.895 9.987 31.027 0 1.94 1.353 3.403 4.26 4.608 5.6 2.32 12.7 8.636 15.25 13.566l2.04 3.946-7.775-.893c-4.277-.49-10.475-1.067-13.775-1.281-6.766-.438-35.547 1.372-42.667 2.684-4.486.827-4.304.948 4.667 3.132 31.929 7.77 49.368 29.98 56.025 71.354 2.413 14.996 2.064 17.964-1.34 11.402-4.41-8.498-21.121-29.696-32.645-41.41-11.281-11.467-23.768-21.82-34.055-28.237l-5.348-3.336 3.656 7.482c4.869 9.963 7.521 20.857 7.978 32.77.325 8.459.664 9.64 2.489 8.663 4.391-2.35 15.887-2.969 22.243-1.196 6.456 1.8 6.64 1.963 26.732 23.873l6.69 7.294 10.387-.31c14.048-.418 17.807 1.108 26.636 10.819l7.49 8.236-.771-26.666c-1.544-53.414-10.415-103.396-26.848-151.27-17.152-49.965-44.83-100.754-76.078-139.6-13.146-16.342-42.87-46.267-57.908-58.299-28.695-22.958-66.777-44.718-98-55.998-75.32-27.21-157.553-24.435-231.268 7.805-77.542 33.913-144.492 100.348-187.315 185.874C667.734 812.492 655.782 846.9 645.45 894c-14.235 64.89-13.947 150.471.725 215.611l2.015 8.945 7.376-8.278c4.057-4.553 11.599-12.086 16.76-16.74M669.333 1020v-8h5.334c2.933 0 5.333.6 5.333 1.333 0 .734-1.5 1.334-3.333 1.334-2.074 0-3.334.755-3.334 2 0 1.11 1.186 2 2.667 2 1.467 0 2.667.6 2.667 1.333s-1.2 1.333-2.667 1.333c-1.481 0-2.667.89-2.667 2 0 1.245 1.26 2 3.334 2 1.833 0 3.333.6 3.333 1.334 0 .733-2.4 1.333-5.333 1.333h-5.334zm14.322 7.21c-1.869-1.868.578-3.097 4.575-2.297 3.184.637 3.986.398 3.51-1.044-.338-1.028-1.92-2.06-3.514-2.295-3.948-.581-5.945-4.537-3.782-7.495 1.814-2.481 11.227-2.552 10.495-.079-.218.734-1.81 1.148-3.54.922-5.14-.674-5.14 2.07-.002 3.766 4.053 1.337 4.695 2.092 4.346 5.107-.359 3.098-1.08 3.588-5.791 3.935-2.96.217-5.794-.016-6.297-.52m17.678-5.877c0-5.037-.489-6.666-2-6.666-1.1 0-2-.6-2-1.334 0-.733 2.7-1.333 6-1.333s6 .6 6 1.333c0 .734-.9 1.334-2 1.334-1.51 0-2 1.63-2 6.666s-.489 6.667-2 6.667c-1.51 0-2-1.63-2-6.667m8 4.667c0-1.1.9-2 2-2s2 .9 2 2-.9 2-2 2-2-.9-2-2m17.334-4.667c0-5.037-.49-6.666-2-6.666-1.1 0-2-.6-2-1.334 0-.733 1.8-1.333 4-1.333h4v8c0 6.222-.445 8-2 8-1.511 0-2-1.63-2-6.667m8 5.422c0-.684 1.603-1.434 3.564-1.666 1.96-.232 3.823-1.213 4.14-2.18.319-.967-.235-1.645-1.23-1.509-6.132.845-9.789-3.406-6.421-7.464 1.945-2.344 8.137-2.545 10.347-.336 2.428 2.429 1.93 9.688-.839 12.193-2.595 2.349-9.561 3.05-9.561.962m7.666-9.755c-.305-.917-1.355-1.667-2.333-1.667s-2.028.75-2.333 1.667c-.33.992.614 1.667 2.333 1.667s2.664-.676 2.333-1.667m8.583 9.3c-.999-1.203-1.177-3.862-.518-7.723 1.066-6.244 2.97-7.527 8.947-6.027 2.833.711 3.11 1.458 2.894 7.785l-.239 6.998-4.78.401c-2.87.24-5.39-.333-6.304-1.434m7.75-2.967c0-1.11-1.185-2-2.666-2-2.656 0-3.468 1.421-1.778 3.111 1.624 1.624 4.445.92 4.445-1.11m-.305-7.083c.29-.87-.422-1.583-1.583-1.583s-2.111.95-2.111 2.11c0 2.355 2.87 1.945 3.694-.527m9.048 8.787c-1.142-1.63-2.076-3.897-2.076-5.037 0-3.615 4.02-8 7.334-8 6.241 0 9.619 9.518 4.895 13.793-3.396 3.073-7.695 2.753-10.153-.756m8.591-4.246c0-4.053-2.609-6.499-4.902-4.596-2.157 1.79-2.288 5.415-.269 7.434 2.184 2.184 5.171.544 5.171-2.838m53-360.258c-2.75-4.051-4.996-7.779-4.99-8.283.018-1.912 8.973-6.917 12.375-6.917 3.796 0 8.55 5.409 6.983 7.944-.474.767.824 2.038 2.885 2.825 3.54 1.351 3.61 1.531 1.276 3.245-1.58 1.161-3.503 1.435-5.334.759-4.084-1.508-6.753-.385-4.768 2.007 1.817 2.189.722 5.909-1.718 5.836-.94-.028-3.959-3.365-6.709-7.416m9.083-9.732c-1.196-1.936-2.382-1.851-5.444.388-2.194 1.604-2.289 2.157-.698 4.073 1.705 2.055 2.03 2.026 4.444-.388 1.433-1.433 2.197-3.266 1.698-4.073m320.898 14.313c-1.181-1.181-.421-3.094 3.179-7.999 3.93-5.352 4.373-6.583 2.62-7.256-2.185-.839-2.872-3.908-1.113-4.976.55-.334 4.099 1.628 7.887 4.359 5.114 3.688 6.583 5.454 5.707 6.862-.987 1.587-1.64 1.61-4.01.142-2.44-1.514-3.08-1.422-4.664.666-1.01 1.332-1.855 2.78-1.878 3.217-.053.986-4.807 6.538-5.599 6.538-.317 0-1.275-.699-2.13-1.553M862.354 638.8l-4.962-9.074 6.79-3.695c5.494-2.99 7.004-3.346 7.92-1.866.806 1.306-.225 2.647-3.6 4.684-5.21 3.145-4.085 5.453 1.434 2.938 2.5-1.138 3.875-1.175 4.92-.13s.302 2.044-2.657 3.574q-4.109 2.125-3.329 4.153c.67 1.744 1.44 1.638 5.494-.755 3.718-2.193 4.943-2.416 5.787-1.05 1.273 2.06.943 2.39-6.826 6.848l-6.009 3.447zm268.252 1.576-1.583-7.624-2.52 4.913c-1.703 3.32-3.166 4.665-4.512 4.148-1.095-.42-1.991-1.282-1.991-1.915 0-1.895 8.097-17.232 9.086-17.21 2.625.059 4.021 2.687 4.916 9.255l.99 7.276 2.536-4.942c2.657-5.18 3.36-5.607 6.223-3.791 1.367.866.854 2.633-2.333 8.038-2.247 3.81-4.085 7.501-4.085 8.202s-1.157 1.275-2.572 1.275c-2.056 0-2.89-1.53-4.155-7.625M1099 631.117c-.917-.37-1.667-1.764-1.667-3.098 0-3.16-7.569-6.036-10.18-3.87-.982.816-2.802 1.093-4.044.616-1.844-.708-.846-2.294 5.45-8.656 9.543-9.644 12.767-9.716 12.789-.287.01 3.398.387 8.428.841 11.178.803 4.856.288 5.52-3.189 4.117m-1.667-13.324c0-3.492-.037-3.506-2.753-1.048-2.761 2.499-2.42 3.134 2.42 4.495.183.051.333-1.5.333-3.447m-199.685 10.54c.28-1.283 1.204-2.19 2.052-2.015 2.61.538 8.508-2.236 7.662-3.605-.44-.71-2.502-.952-4.584-.535-5.142 1.028-9.445-1.49-9.445-5.528 0-3.516 3.605-6.444 9.667-7.85 3.039-.705 3.667-.405 3.667 1.753 0 1.828-1.062 2.729-3.564 3.025-6.41.759-5.288 3.755 1.406 3.755 6.47 0 9.668 2.916 7.991 7.286-1.937 5.049-15.908 8.542-14.852 3.714m38.251-16.93c-1.399-6.251-2.095-7.32-4.993-7.667-6.349-.76-4.453-3.354 4.009-5.485 6.172-1.555 8.598-1.705 9.297-.575 1.322 2.14.095 3.657-2.957 3.657-1.424 0-2.581.15-2.573.334.01.183.902 3.633 1.985 7.666 2.498 9.31 2.497 9.334-.571 9.334-2.026 0-2.916-1.541-4.197-7.264m121.677 3.93c-1.652-3.625-5.576-4.564-5.576-1.333 0 1.111-1.185 2-2.667 2-3.196 0-3.16.697-.56-10.737 1.16-5.095 2.81-9.26 3.667-9.256 3.361.016 12.28 3.038 13.206 4.475 1.792 2.776 1.053 7.384-1.576 9.834-1.83 1.704-2.23 3-1.354 4.385 1.857 2.937 1.554 3.966-1.169 3.966-1.349 0-3.136-1.5-3.971-3.334m3.09-10.685c0-3.713-5.41-4.38-6.35-.782-.385 1.47-.014 2.961.825 3.313 2.975 1.25 5.526.082 5.526-2.53m-94.873 7.019c.376-.917 2.044-5.717 3.707-10.667 3.984-11.855 5.997-11.786 13.051.45 2.997 5.198 5.449 9.698 5.449 10 0 1.583-5.374.24-6.404-1.6-1.453-2.597-9.346-1.387-10.495 1.61-.396 1.03-1.905 1.873-3.355 1.873-1.583 0-2.362-.665-1.953-1.666m11.54-10.334c-.785-1.466-1.636-2.666-1.891-2.666s-.778 1.2-1.162 2.666c-.52 1.99-.04 2.667 1.892 2.667 2.175 0 2.36-.426 1.161-2.667m32.815 8.94c-2.355-1.722-2.919-5.131-2.414-14.606.217-4.087.772-5 3.033-5 2.402 0 2.738.748 2.543 5.666-.386 9.763-.206 10.334 3.26 10.334 2.925 0 3.327-.71 4.154-7.334.748-5.984 1.381-7.333 3.441-7.333 2.284 0 2.443.731 1.67 7.667-.47 4.216-1.77 8.716-2.885 10-2.388 2.744-9.423 3.077-12.802.606m348.486 473.638c1.632-10.315 2.636-19.086 2.231-19.49-.959-.959-1.69 2.553-4.16 19.953-2.105 14.846-2.395 18.293-1.538 18.293.275 0 1.835-8.44 3.467-18.756m-467.76 1.932c.48-.28.64-2.76.357-5.51s-1.152-11.3-1.931-19c-3.176-31.403-11.844-71.697-21.422-99.588-6.292-18.322-17.238-44.83-18.14-43.928-.341.342-.046 1.723.656 3.069 2.561 4.908 10.957 31.34 14.839 46.717 7.64 30.26 14.746 77.258 14.777 97.73.007 4.767.395 11.846.862 15.73l.848 7.064 4.14-.887c2.277-.488 4.533-1.117 5.013-1.397m-31.292-45.51c-1.713-54.254-12.116-99.651-33.569-146.485l-4.955-10.82-8.862 1.705c-4.875.937-13.034 2.76-18.131 4.049l-9.27 2.344 8.428 1.719c4.636.945 12.107 3.545 16.603 5.776 9.934 4.932 20.53 12.371 18.555 13.03-.792.264-7.352-1.067-14.577-2.957-9.162-2.397-18.382-3.69-30.47-4.275L766 903.58l12.34 12.934c6.788 7.114 13.387 14.559 14.665 16.543 1.278 1.985 6.264 9.077 11.081 15.761 14.742 20.454 31.56 57.176 40.649 88.75 5.867 20.387 10.191 28.686 15.138 29.057.297.022.166-11.81-.291-26.293m159.534 18.788 11.784-2.383-.847-6.777c-.986-7.89-.333-8.468 13.473-11.915 12.116-3.026 12.04-3.056 13.083 5.287.504 4.034 1.31 7.334 1.79 7.334 3.255 0 21.601-4.652 21.601-5.478 0-.563-5.131-25.51-11.403-55.44a64382 64382 0 0 1-12.85-61.416c-.797-3.85-2.116-7.006-2.931-7.014s-12.433 2.224-25.816 4.96l-24.333 4.976v65.796c0 62.029.133 65.757 2.333 65.124 1.283-.369 7.636-1.743 14.116-3.054m27.884-5.858c3.856-1.07 4.995-2.06 4.98-4.326-.036-5.169-1.81-6.548-7.133-5.55-5.863 1.1-6.643 2.136-5.507 7.312.986 4.487.873 4.449 7.66 2.564M1258.307 1041c21.478-20.881 32.348-38.32 32.356-51.903 0-6.593-.45-7.927-3.51-10.334-12.082-9.504-34.636 6.035-37.335 25.722-.731 5.338-.394 6.274 4.025 11.166 2.653 2.936 4.821 6.466 4.819 7.844-.01 3.204-3.364 8.625-11.036 17.816-4.52 5.416-5.739 7.75-4.7 9 .77.93 2 1.689 2.734 1.689.733 0 6.424-4.95 12.647-11m-422.928-9.109c-4.237-13.41-13.359-36.662-16.173-41.224-2.292-3.715-2.376-4.001 4.114 14 2.38 6.6 5.725 17.4 7.436 24 2.623 10.122 5.921 16.434 7.673 14.682.238-.238-1.135-5.394-3.05-11.458m294.954 3.269c2.499-.67 3-1.727 3-6.324 0-9.643 3.871-39.565 7.422-57.366 6.038-30.272 16.704-62.687 27.894-84.769 1.868-3.685 3.091-6.701 2.719-6.701-1.048 0-13.59 25.488-18.213 37.016-13.24 33.005-23.443 74.389-27.284 110.65-.904 8.537-.701 8.877 4.462 7.494m21.114-4.049 5.568-.763 5.635-15.507c6.123-16.852 24.122-54.472 28.727-60.045 1.574-1.905 6.645-9.163 11.27-16.13 4.702-7.083 13.437-17.61 19.817-23.885l11.41-11.219-17.27.902c-15.736.822-21.284 1.697-39.113 6.164-3.214.806-6.077 1.23-6.363.945s4.031-3.595 9.594-7.352c10.036-6.78 23.66-12.086 31.752-12.366 5.173-.179-23.177-7.64-29.511-7.768-4.188-.083-4.588.373-9.57 10.913-6.013 12.725-13.608 32.794-18.14 47.938-6.361 21.25-13.453 62.458-13.95 81.062-.264 9.837-.29 9.741 2.303 8.746 1.25-.48 4.779-1.215 7.841-1.635m22.644-8.111c1.615-7.332 8.922-30.527 12.04-38.224 1.76-4.34 2.972-8.117 2.697-8.393-1.124-1.123-18.161 44.407-18.161 48.534 0 3.243 2.608 1.782 3.424-1.917m33.19-3.819c12.496-2.65 23.683-5.326 24.862-5.945 1.46-.768 2.376-3.69 2.874-9.18.709-7.822 6.846-23.485 11-28.075 1.608-1.777 1.418-3.291-1.376-10.99-4.088-11.263-7.232-32.549-6.35-42.991.459-5.422.24-7.57-.681-6.667-4.263 4.185-22.721 28.06-24.961 32.286a3291 3291 0 0 1-8.418 15.69c-7.656 14.19-14.03 29.643-18.212 44.153-1.882 6.53-3.747 12.921-4.144 14.205-.959 3.1-.91 3.096 25.406-2.486m-240.199-18.71.76-6.861-6.083-1.532c-3.346-.842-6.227-1.354-6.403-1.138s-.698 3.76-1.16 7.873l-.842 7.48 5.656 1.282c3.111.705 6.03.94 6.485.52s1.17-3.85 1.587-7.623m-152.25-19.493c-1.317-1.307-1.47-1.154-.746.746.5 1.315 1.246 2.055 1.657 1.645.41-.41 0-1.487-.91-2.391m225.656-65.645c19.376-4.033 35.593-7.333 36.037-7.333.445 0 .808-4.264.808-9.476 0-7.005-.434-9.323-1.666-8.89-.917.323-17.717 3.835-37.334 7.805l-35.666 7.219v9.004c0 4.953.583 9.005 1.296 9.005s17.149-3.3 36.525-7.334m-192.325-2.9c-1.572-2.703-1.952-1.837-.665 1.515.457 1.192 1.112 1.886 1.456 1.543s-.013-1.72-.791-3.058m145.725-6.186c2.085-1.525-.008-2.243-16.079-5.512a5108 5108 0 0 1-35.809-7.44c-9.533-2.027-17.783-3.411-18.333-3.077-1.385.84-1.265 15.115.126 15.115.62 0 2.202-1.188 3.517-2.64 3.95-4.365 9.564-4.273 31.357.515 22.565 4.958 31.538 5.732 35.22 3.039m35.702-12.483 23.743-4.902v-90.075l-4.333-.686c-4.154-.659-43.267-4.774-45.333-4.77-.55.001-1 23.702-1 52.669 0 39.897.385 52.667 1.59 52.667.875 0 12.275-2.206 25.333-4.903m-18.923-58.927c0-22.139.448-32.17 1.44-32.17 2.587 0 27.15 2.783 30.226 3.425 2.99.623 3 .718 3 27.147v26.522l-12.105 2.787c-6.658 1.533-14.458 3.164-17.334 3.624l-5.227.835zm15.696-.525c.205-14.122-.157-24.979-.834-24.979-.657 0-3.07-.375-5.362-.833l-4.167-.833v53.247l5-.812 5-.812zm13.637-.17c0-19.916-.298-23.304-2.109-24-5.836-2.239-5.891-2.025-5.891 23.191v24h8zM745.506 890.91c-5.43-7.625-11.978-23.174-13.613-32.324-1.628-9.11-1.705-9.234-4.304-6.93-4.802 4.255-24.922 27.24-24.922 28.471 0 .663 1.526 1.206 3.392 1.206 6.189 0 19.798 4.1 30.608 9.218 5.866 2.779 10.882 4.876 11.145 4.66.263-.215-.774-2.15-2.306-4.301m530.73-6.151c5.628-1.884 12.378-3.426 15-3.426 2.62 0 4.764-.546 4.764-1.213 0-1.794-10.064-14.333-18.667-23.259l-7.524-7.806-2.095 10.633c-1.93 9.8-8.76 26.207-13.838 33.25-1.953 2.707-1.562 2.637 5.003-.908 3.917-2.115 11.727-5.387 17.356-7.271m-30.117-17.852c1.954-5.368 6.27-13.374 9.591-17.793 3.383-4.5 5.469-8.417 4.743-8.907-.714-.48-4.857-3.597-9.208-6.927-4.352-3.329-9.5-7.052-11.442-8.274l-3.53-2.222 2.557 6.941c1.407 3.818 2.924 11.177 3.371 16.353.835 9.653-1.585 32.05-3.597 33.294-1.613.997-10.064-17.456-13.234-28.897-1.579-5.696-2.703-13.807-2.703-19.495v-9.74l-4.331 5.047c-2.383 2.775-4.667 5.346-5.077 5.713-4 3.578-30.592 42.367-30.592 44.623 0 .227 3.45-1.006 7.666-2.74 8.94-3.676 24.363-4.354 31.473-1.383 6.365 2.66 13.294 9.195 16.27 15.346l2.59 5.354.95-8.267c.523-4.546 2.549-12.658 4.503-18.026m-475.26 10.148c2.461-1.813 6.433-4.068 8.828-5.012 6.214-2.45 23.326-1.12 31.407 2.443l6.427 2.833-4.36-7.66c-5.995-10.532-12.574-19.9-24.775-35.275L778 821.296l-.855 12.352c-.47 6.794-1.881 15.652-3.137 19.685-3.185 10.23-11.529 27.016-12.791 25.732-1.946-1.98-4.218-24.921-3.37-34.038.462-4.98 1.978-12.048 3.369-15.707 2.836-7.463 3.094-7.517-9.883 2.03-13.402 9.861-13.288 9.62-7.874 16.668 8.265 10.762 15.208 28.957 15.208 39.857v4.647l3.86-6.086c2.122-3.348 5.872-7.57 8.333-9.381m212.64-68.668c-.308-.307-2.721-.153-5.363.342l-4.803.901v48.986l3.667.809c2.017.444 4.267.956 5 1.137 1.285.317 2.757-50.917 1.498-52.175M968 833.333c0-25.216-.054-25.43-5.891-23.19-1.807.693-2.109 4.004-2.109 23.11 0 12.267.4 22.703.889 23.191.489.49 2.289.89 4 .89H968Zm-6.308-32.874c-.903-.365-2.703-.388-4-.05s-.559.637 1.641.664 3.262-.249 2.359-.614m115.641-9.179c0-2.266-.894-3.424-3-3.882-2.61-.569-68.001-7.42-70.666-7.404-.55.003-1 1.806-1 4.006 0 2.885.65 4.026 2.333 4.094 1.283.052 17.633 1.751 36.333 3.777s34.45 3.449 35 3.161 1-1.976 1-3.752m-150.286.187c1.83-1.157 14.357-3.008 32.953-4.87 27.092-2.713 39.028-4.756 35.333-6.048-.733-.256-17.233 1.177-36.666 3.184-34.257 3.54-35.347 3.741-35.76 6.625-.497 3.473.132 3.642 4.14 1.109m53.86-23.312c6-4.832 10.73-8.962 10.515-9.178-.444-.444-30.027 16.704-32.089 18.6-.816.75.994.865 4.667.295 4.663-.724 8.43-2.889 16.907-9.717m59.693 9.299c-1.475-1.412-33.287-19.956-36.06-21.02-1.5-.576-1.873 1.168-1.873 8.757 0 8.102.338 9.488 2.333 9.563 1.283.049 9.233.871 17.667 1.829 20.439 2.32 19.393 2.269 17.933.87"/>
    </g>
</svg>
